<svg width="452" height="452" viewBox="0 0 452 452" fill="none" xmlns="http://www.w3.org/2000/svg">
<path d="M132.8 257.1C146.3 257.1 158.7 252.5 168.7 244.9L86.2996 162.5C78.5996 172.4 74.0996 184.9 74.0996 198.4C74.0996 230.7 100.4 257.1 132.8 257.1Z" fill="url(#paint0_linear_180_178)"/>
<path d="M377.7 198.3C377.7 184.8 373.1 172.4 365.5 162.4L283.1 244.7C293 252.4 305.5 256.9 319 256.9C351.4 257.1 377.7 230.7 377.7 198.3Z" fill="url(#paint1_linear_180_178)"/>
<path d="M419.1 108.7L382.7 145.1C394.8 159.6 402 178 402 198.3C402 244.1 364.7 281.4 318.9 281.4C298.7 281.4 280.2 274.1 265.7 262.1L225.8 302L185.9 262.1C171.4 274.2 153 281.4 132.7 281.4C86.9 281.4 49.6 244.1 49.6 198.3C49.6 178.1 56.9 159.6 68.9 145.1L50.3 126.5L32.6 108.8C11.9 143 0 183 0 225.8C0 350.5 101.1 451.7 225.9 451.7C350.7 451.7 451.8 350.6 451.8 225.8C451.7 182.9 439.8 142.9 419.1 108.7Z" fill="url(#paint2_linear_180_178)"/>
<path d="M389.2 69.9C348.2 26.8 290.1 0 225.8 0C161.5 0 103.5 26.9 62.3996 69.9C56.7996 75.8 51.5996 82 46.5996 88.4L225.8 267.7L405 88.4C400.2 81.9 394.9 75.8 389.2 69.9ZM225.9 29.5C278.8 29.5 327.8 49.9 364.8 87L225.9 225.9L86.9996 87C123.9 49.8 173 29.5 225.9 29.5Z" fill="url(#paint3_linear_180_178)"/>
<defs>
<linearGradient id="paint0_linear_180_178" x1="-14.0773" y1="300.613" x2="307.574" y2="80.5362" gradientUnits="userSpaceOnUse">
<stop offset="0.1861" stop-color="#009BB3"/>
<stop offset="0.4463" stop-color="#008B73"/>
<stop offset="0.5401" stop-color="#008B73"/>
<stop offset="1" stop-color="#E8663D"/>
</linearGradient>
<linearGradient id="paint1_linear_180_178" x1="60.0639" y1="408.974" x2="381.715" y2="188.897" gradientUnits="userSpaceOnUse">
<stop offset="0.1861" stop-color="#009BB3"/>
<stop offset="0.4463" stop-color="#008B73"/>
<stop offset="0.5401" stop-color="#008B73"/>
<stop offset="1" stop-color="#E8663D"/>
</linearGradient>
<linearGradient id="paint2_linear_180_178" x1="33.2728" y1="369.817" x2="354.924" y2="149.74" gradientUnits="userSpaceOnUse">
<stop offset="0.1861" stop-color="#009BB3"/>
<stop offset="0.4463" stop-color="#008B73"/>
<stop offset="0.5401" stop-color="#008B73"/>
<stop offset="1" stop-color="#E8663D"/>
</linearGradient>
<linearGradient id="paint3_linear_180_178" x1="-26.4504" y1="282.529" x2="295.201" y2="62.4524" gradientUnits="userSpaceOnUse">
<stop offset="0.1861" stop-color="#009BB3"/>
<stop offset="0.4463" stop-color="#008B73"/>
<stop offset="0.5401" stop-color="#008B73"/>
<stop offset="1" stop-color="#E8663D"/>
</linearGradient>
</defs>
</svg>

