<svg width="290" height="326" viewBox="0 0 290 326" fill="none" xmlns="http://www.w3.org/2000/svg">
<path d="M181.303 149.839L204.968 109.685L268.753 209.033L268.783 228.098L268.575 96.9009C268.499 95.3186 268.045 93.7776 267.249 92.4078C266.454 91.038 265.341 89.8795 264.004 89.0299L149.167 22.9739C146.481 21.6539 143.074 21.6679 140.393 23.0149C140.039 23.1919 139.696 23.3909 139.365 23.6089L138.965 23.8609L27.4967 88.4559L27.0637 88.6519C26.5077 88.9079 25.9457 89.2329 25.4177 89.6109C23.3269 91.1034 21.902 93.3537 21.4467 95.8819C21.3767 96.2659 21.3297 96.6529 21.3047 97.0419L21.4797 203.955L80.8927 111.868C88.3727 99.6569 104.671 95.7239 119.8 95.9379L137.557 96.4069L32.9327 264.194L45.2657 271.295L151.144 96.5769L197.942 96.4069L92.3367 275.534L136.345 300.846L141.603 303.87C143.827 304.774 146.449 304.819 148.692 304.01L265.143 236.525L242.879 249.426L181.303 149.839ZM190.332 279.878L145.883 210.116L173.016 164.074L231.391 256.083L190.332 279.878Z" fill="#2D374B"/>
<path d="M145.883 210.115L190.332 279.877L231.392 256.082L173.017 164.073L145.883 210.115ZM268.783 228.097L268.753 209.032L204.968 109.684L181.303 149.838L242.879 249.425L265.143 236.524C266.222 235.65 267.104 234.558 267.732 233.32C268.36 232.082 268.719 230.725 268.787 229.339L268.783 228.097Z" fill="#28A0F0"/>
<path d="M1.49123 246.078L32.9312 264.194L137.555 96.4069L119.798 95.9379C104.669 95.7239 88.3722 99.6569 80.8912 111.868L21.4782 203.955L1.49023 234.666L1.49123 246.078ZM197.94 96.4069L151.143 96.5769L45.2652 271.295L82.2722 292.603L92.3362 275.534L197.94 96.4069Z" fill="white"/>
<path d="M288.504 96.1649C288.113 86.3779 282.814 77.4179 274.513 72.2019L158.171 5.29686C149.96 1.16186 139.702 1.15686 131.478 5.29386C130.506 5.78386 18.3372 70.8379 18.3372 70.8379C16.7792 71.5868 15.289 72.469 13.8832 73.4749C6.47319 78.7859 1.95619 87.0379 1.49219 96.1049V234.666L21.4802 203.955L21.3052 97.0419C21.3292 96.6549 21.3772 96.2689 21.4472 95.8869C21.9 93.3564 23.3253 91.1036 25.4182 89.6109C25.9462 89.2329 140.03 23.1969 140.393 23.0149C143.075 21.6679 146.482 21.6539 149.167 22.9739L264.004 89.0299C265.341 89.8795 266.454 91.038 267.25 92.4078C268.045 93.7776 268.5 95.3186 268.575 96.9009V229.34C268.436 232.149 267.326 234.751 265.142 236.525L242.878 249.426L231.391 256.083L190.331 279.878L148.691 304.01C146.448 304.82 143.826 304.775 141.602 303.87L92.3362 275.534L82.2722 292.602L126.546 318.093C128.01 318.925 129.315 319.663 130.385 320.265C132.043 321.195 133.172 321.816 133.571 322.009C136.718 323.537 141.245 324.427 145.325 324.427C149.066 324.427 152.713 323.74 156.165 322.388L277.11 252.345C284.052 246.967 288.136 238.856 288.504 230.069V96.1649Z" fill="#96BEDC"/>
</svg>

