<svg width="868" height="868" viewBox="0 0 868 868" fill="none" xmlns="http://www.w3.org/2000/svg">
<path d="M522.564 539.301C358.522 588.518 222.824 660.304 137.88 744.411L134.125 748.145C156.759 769.609 181.609 788.608 208.255 804.824L214.016 797.795C237.283 769.429 261.966 742.253 287.97 716.373C357.481 647.195 437.018 587.299 522.649 539.216L522.564 539.301ZM-0.00072561 466.382C6.27044 551.508 37.7206 632.846 90.3492 700.047L92.7088 697.702C145.292 645.884 213.754 598.75 296.345 557.695C368.726 521.672 451.841 490.771 541.404 466.382H-0.00072561ZM333.836 105.719C480.616 251.805 665.327 348.419 867.914 385.045C843.497 168.477 658.957 0 434.736 0C375.521 0 319.097 11.8048 267.556 33.069C288.487 58.2446 310.814 82.7186 333.836 105.719ZM137.88 123.589C222.824 207.781 358.522 279.482 522.564 328.784C436.926 280.608 357.396 220.805 287.885 151.627C261.887 125.743 237.205 98.5709 213.931 70.2123L208.17 63.1762C181.534 79.3712 156.71 98.375 134.125 119.862L137.88 123.589ZM333.836 762.267C310.596 785.413 288.478 809.657 267.556 834.917C320.572 856.806 377.379 868.043 434.736 867.986C658.957 867.986 843.497 699.509 868.006 482.849C665.412 519.482 480.701 616.096 333.928 762.182L333.836 762.267ZM296.345 310.326C213.754 269.271 145.292 222.137 92.7017 170.312L90.3492 167.974C37.7232 235.177 6.27547 316.514 0.00635706 401.64H541.319C451.756 377.251 368.726 346.35 296.253 310.234L296.345 310.326Z" fill="#0D1D29"/>
</svg>

