<svg width="500" height="500" viewBox="0 0 500 500" fill="none" xmlns="http://www.w3.org/2000/svg">
<g clip-path="url(#clip0_28_219)">
<path d="M250 500C388.071 500 500 388.071 500 250C500 111.929 388.071 0 250 0C111.929 0 0 111.929 0 250C0 388.071 111.929 500 250 500Z" fill="white"/>
<path d="M397.998 217.647L338.48 243.075L180.587 320.085L338.48 392.827V272.59L397.998 246.889V424.522L338.48 449.95L106 343.334V286.666L266.926 211.018L106 136.913V79.428L166.466 54L397.998 160.797V217.647Z" fill="#49C1BF"/>
<path d="M106 79.428L338.48 186.225L397.998 160.797L166.466 54L106 79.428Z" fill="#077A8F"/>
<path d="M338.482 185.985L398 160.557V217.406L338.482 242.834V185.985Z" fill="#298E97"/>
<path d="M106 79.4785V136.964L266.926 211.068L106 286.716V343.384L338.48 450V392.969L180.587 320.136L338.48 243.126V186.276L106 79.4785Z" fill="#49C1BF"/>
<path d="M338.482 449.578L398 424.15V246.518L338.482 272.218V449.578Z" fill="#298E97"/>
</g>
<defs>
<clipPath id="clip0_28_219">
<rect width="500" height="500" fill="white"/>
</clipPath>
</defs>
</svg>
