<svg width="1500" height="1500" viewBox="0 0 1500 1500" fill="none" xmlns="http://www.w3.org/2000/svg">
<path d="M1500 750C1500 1164.21 1164.21 1500 750 1500C335.786 1500 0 1164.21 0 750C0 335.786 335.786 0 750 0C1164.21 0 1500 335.786 1500 750Z" fill="white"/>
<path d="M1105.79 660.467L961.885 724.63L580.115 918.952L961.885 1102.5V799.105L1105.79 734.254V1182.48L961.885 1246.64L399.771 977.616V834.624L788.874 643.738L399.771 456.749V311.694L545.971 247.531L1105.79 517.016V660.467Z" fill="#49C1BF"/>
<path d="M399.771 311.694L961.885 581.179L1105.79 517.016L545.971 247.531L399.771 311.694Z" fill="#077A8F"/>
<path d="M961.89 580.572L1105.8 516.409V659.859L961.89 724.023V580.572Z" fill="#298E97"/>
<path d="M399.771 311.823V456.877L788.874 643.867L399.771 834.752V977.744L961.885 1246.77V1102.86L580.115 919.081L961.885 724.758V581.308L399.771 311.823Z" fill="#49C1BF"/>
<path d="M961.89 1245.7L1105.8 1181.54V733.312L961.89 798.163V1245.7Z" fill="#298E97"/>
</svg>
