<svg width="32" height="32" viewBox="0 0 32 32" fill="none" xmlns="http://www.w3.org/2000/svg">
<g clip-path="url(#clip0_179_177)">
<path d="M16 32C24.8366 32 32 24.8366 32 16C32 7.16344 24.8366 0 16 0C7.16344 0 0 7.16344 0 16C0 24.8366 7.16344 32 16 32Z" fill="#6F41D8"/>
<path d="M10.9081 12.693C11.2771 12.478 11.7561 12.478 12.1621 12.693L15.0411 14.347L16.9961 15.425L19.8751 17.078C20.2441 17.294 20.7231 17.294 21.1291 17.078L23.4171 15.784C23.7861 15.569 24.0441 15.174 24.0441 14.742V12.19C24.0462 11.9753 23.9888 11.7642 23.8781 11.5802C23.7674 11.3963 23.6078 11.2466 23.4171 11.148L21.1671 9.89C20.7971 9.674 20.3171 9.674 19.9111 9.89L17.6611 11.148C17.2911 11.364 17.0331 11.759 17.0331 12.19V13.844L15.0781 12.729V11.076C15.0759 10.8613 15.1334 10.6502 15.2441 10.4662C15.3548 10.2823 15.5144 10.1326 15.7051 10.034L19.8751 7.662C20.2441 7.446 20.7231 7.446 21.1291 7.662L25.3731 10.034C25.5638 10.1326 25.7234 10.2823 25.8341 10.4662C25.9448 10.6502 26.0022 10.8613 26.0001 11.076V15.856C26.0001 16.288 25.7791 16.683 25.3731 16.899L21.1291 19.271C20.7601 19.486 20.2801 19.486 19.8751 19.271L16.9961 17.653L15.0411 16.539L12.1621 14.922C11.7931 14.706 11.3141 14.706 10.9081 14.922L8.65706 16.18C8.28706 16.395 8.03006 16.79 8.03006 17.222V19.774C8.03006 20.205 8.25006 20.6 8.65706 20.816L10.9071 22.11C11.2771 22.326 11.7571 22.326 12.1621 22.11L14.4131 20.852C14.7831 20.636 15.0411 20.241 15.0411 19.81V18.156L16.9961 19.271V20.924C16.9961 21.355 16.7751 21.751 16.3691 21.966L12.1251 24.338C11.7561 24.554 11.2771 24.554 10.8711 24.338L6.62706 21.966C6.25806 21.751 6.00006 21.356 6.00006 20.924V16.144C5.9979 15.9293 6.05537 15.7182 6.16607 15.5343C6.27677 15.3503 6.43635 15.2006 6.62706 15.102L10.9071 12.693H10.9081Z" fill="white"/>
</g>
<defs>
<clipPath id="clip0_179_177">
<rect width="32" height="32" fill="white"/>
</clipPath>
</defs>
</svg>

