<svg width="588" height="588" viewBox="0 0 588 588" fill="none" xmlns="http://www.w3.org/2000/svg">
<g clip-path="url(#clip0_214_177)">
<path d="M294 588C456.372 588 588 456.372 588 294C588 131.628 456.372 0 294 0C131.628 0 0 131.628 0 294C0 456.372 131.628 588 294 588Z" fill="#EF0027"/>
<path d="M403 182.152L137.812 133.348L277.371 484.531L471.833 247.603L403 182.152ZM398.738 203.65L439.31 242.22L328.361 262.303L398.738 203.65ZM304.253 258.279L187.315 161.296L378.452 196.466L304.253 258.279ZM295.929 275.442L276.856 433.099L174.048 174.324L295.929 275.442ZM313.569 283.802L436.443 261.568L295.507 433.246L313.569 283.802Z" fill="white"/>
</g>
<defs>
<clipPath id="clip0_214_177">
<rect width="588" height="588" fill="white"/>
</clipPath>
</defs>
</svg>
