<svg width="939" height="939" viewBox="0 0 939 939" fill="none" xmlns="http://www.w3.org/2000/svg">
<g clip-path="url(#clip0_181_177)">
<mask id="mask0_181_177" style="mask-type:luminance" maskUnits="userSpaceOnUse" x="0" y="0" width="939" height="939">
<path d="M0 0H939V939H0V0Z" fill="white"/>
</mask>
<g mask="url(#mask0_181_177)">
<path d="M936.338 469.5C936.338 210.202 726.136 0 466.838 0C207.54 0 -2.66211 210.202 -2.66211 469.5C-2.66211 728.798 207.54 939 466.838 939C726.136 939 936.338 728.798 936.338 469.5Z" fill="#BFF009"/>
<mask id="mask1_181_177" style="mask-type:luminance" maskUnits="userSpaceOnUse" x="270" y="197" width="358" height="521">
<path d="M627.943 197.418H270.332V717.067H627.943V197.418Z" fill="white"/>
</mask>
<g mask="url(#mask1_181_177)">
<path d="M453.806 327.302C453.806 306.644 470.661 289.815 491.346 289.815H558.518V198.625H491.346C420.183 198.625 362.482 256.239 362.482 327.302C362.482 345.84 366.439 363.466 373.502 379.369C318.235 402.697 281.533 452.262 272.988 514.987C263.001 583.843 290.642 658.131 350.818 694.015C404.529 727.792 488.516 725.558 533.876 678.702V709.803H627.36V364.781H491.386C470.702 364.781 453.806 347.953 453.806 327.302ZM535.955 456.012V542.608C535.955 590.456 497.101 629.21 449.219 629.21C401.336 629.21 362.482 590.416 362.482 542.608C362.482 494.799 401.336 456.005 449.219 456.005L535.955 456.012Z" fill="#040404"/>
</g>
</g>
</g>
<defs>
<clipPath id="clip0_181_177">
<rect width="939" height="939" fill="white"/>
</clipPath>
</defs>
</svg>

